<svg width="360" height="57" viewBox="0 0 360 57" fill="none" xmlns="http://www.w3.org/2000/svg">
<path d="M26.4497 6.93311H24.3604V6.08984H26.4497C26.8543 6.08984 27.182 6.02539 27.4326 5.89648C27.6833 5.76758 27.8659 5.58854 27.9805 5.35938C28.0986 5.13021 28.1577 4.86882 28.1577 4.5752C28.1577 4.30664 28.0986 4.0542 27.9805 3.81787C27.8659 3.58154 27.6833 3.39176 27.4326 3.24854C27.182 3.10173 26.8543 3.02832 26.4497 3.02832H24.6021V10H23.5654V2.17969H26.4497C27.0405 2.17969 27.54 2.28174 27.9482 2.48584C28.3564 2.68994 28.6662 2.97282 28.8774 3.33447C29.0887 3.69255 29.1943 4.10254 29.1943 4.56445C29.1943 5.06576 29.0887 5.49365 28.8774 5.84814C28.6662 6.20264 28.3564 6.47298 27.9482 6.65918C27.54 6.8418 27.0405 6.93311 26.4497 6.93311ZM33.7168 9.00635V6.01465C33.7168 5.78548 33.6702 5.58675 33.5771 5.41846C33.4876 5.24658 33.3516 5.1141 33.1689 5.021C32.9863 4.9279 32.7607 4.88135 32.4922 4.88135C32.2415 4.88135 32.0213 4.92432 31.8315 5.01025C31.6453 5.09619 31.4985 5.20898 31.3911 5.34863C31.2873 5.48828 31.2354 5.63867 31.2354 5.7998H30.2417C30.2417 5.59212 30.2954 5.38623 30.4028 5.18213C30.5103 4.97803 30.6642 4.79362 30.8647 4.62891C31.0688 4.46061 31.3123 4.32812 31.5952 4.23145C31.8817 4.13118 32.2004 4.08105 32.5513 4.08105C32.9738 4.08105 33.3462 4.15267 33.6685 4.2959C33.9943 4.43913 34.2485 4.65576 34.4312 4.9458C34.6174 5.23226 34.7104 5.59212 34.7104 6.02539V8.73242C34.7104 8.92578 34.7266 9.13167 34.7588 9.3501C34.7946 9.56852 34.8465 9.75651 34.9146 9.91406V10H33.8779C33.8278 9.88542 33.7884 9.73324 33.7598 9.54346C33.7311 9.3501 33.7168 9.17106 33.7168 9.00635ZM33.8887 6.47656L33.8994 7.1748H32.895C32.6121 7.1748 32.3597 7.19808 32.1377 7.24463C31.9157 7.2876 31.7295 7.35384 31.5791 7.44336C31.4287 7.53288 31.3141 7.64567 31.2354 7.78174C31.1566 7.91423 31.1172 8.06999 31.1172 8.24902C31.1172 8.43164 31.1584 8.59814 31.2407 8.74854C31.3231 8.89893 31.4466 9.01888 31.6113 9.1084C31.7796 9.19434 31.9855 9.2373 32.229 9.2373C32.5334 9.2373 32.8019 9.17285 33.0347 9.04395C33.2674 8.91504 33.4518 8.75749 33.5879 8.57129C33.7275 8.38509 33.8027 8.20426 33.8135 8.02881L34.2378 8.50684C34.2127 8.65723 34.1447 8.82373 34.0337 9.00635C33.9227 9.18896 33.7741 9.36442 33.5879 9.53271C33.4053 9.69743 33.1868 9.83529 32.9326 9.94629C32.682 10.0537 32.3991 10.1074 32.084 10.1074C31.6901 10.1074 31.3446 10.0304 31.0474 9.87646C30.7537 9.72249 30.5246 9.5166 30.3599 9.25879C30.1987 8.9974 30.1182 8.70557 30.1182 8.3833C30.1182 8.07178 30.179 7.79785 30.3008 7.56152C30.4225 7.32161 30.598 7.12288 30.8271 6.96533C31.0563 6.8042 31.332 6.68245 31.6543 6.6001C31.9766 6.51774 32.3364 6.47656 32.7339 6.47656H33.8887ZM39.6572 8.4585C39.6572 8.31527 39.625 8.18278 39.5605 8.06104C39.4997 7.93571 39.3726 7.82292 39.1792 7.72266C38.9894 7.61882 38.703 7.5293 38.3198 7.4541C37.9976 7.38607 37.7057 7.3055 37.4443 7.2124C37.1865 7.1193 36.9663 7.00651 36.7837 6.87402C36.6047 6.74154 36.4668 6.58577 36.3701 6.40674C36.2734 6.2277 36.2251 6.01823 36.2251 5.77832C36.2251 5.54915 36.2752 5.33252 36.3755 5.12842C36.4793 4.92432 36.6243 4.74349 36.8105 4.58594C37.0003 4.42839 37.2277 4.30485 37.4927 4.21533C37.7576 4.12581 38.0531 4.08105 38.3789 4.08105C38.8444 4.08105 39.2419 4.16341 39.5713 4.32812C39.9007 4.49284 40.1532 4.71305 40.3286 4.98877C40.5041 5.2609 40.5918 5.56348 40.5918 5.89648H39.5981C39.5981 5.73535 39.5498 5.57959 39.4531 5.4292C39.36 5.27523 39.2222 5.14811 39.0396 5.04785C38.8605 4.94759 38.6403 4.89746 38.3789 4.89746C38.1032 4.89746 37.8794 4.94043 37.7075 5.02637C37.5392 5.10872 37.4157 5.21436 37.3369 5.34326C37.2617 5.47217 37.2241 5.60824 37.2241 5.75146C37.2241 5.85889 37.242 5.95557 37.2778 6.0415C37.3172 6.12386 37.3853 6.20085 37.4819 6.27246C37.5786 6.34049 37.7147 6.40495 37.8901 6.46582C38.0656 6.52669 38.2894 6.58757 38.5615 6.64844C39.0378 6.75586 39.4299 6.88477 39.7378 7.03516C40.0457 7.18555 40.2749 7.36995 40.4253 7.58838C40.5757 7.8068 40.6509 8.07178 40.6509 8.3833C40.6509 8.63753 40.5972 8.87028 40.4897 9.08154C40.3859 9.29281 40.2337 9.47542 40.0332 9.62939C39.8363 9.77979 39.5999 9.89795 39.3242 9.98389C39.0521 10.0662 38.7459 10.1074 38.4058 10.1074C37.8937 10.1074 37.4604 10.0161 37.106 9.8335C36.7515 9.65088 36.4829 9.41455 36.3003 9.12451C36.1177 8.83447 36.0264 8.52832 36.0264 8.20605H37.0254C37.0397 8.47819 37.1185 8.69482 37.2617 8.85596C37.4049 9.01351 37.5804 9.1263 37.7881 9.19434C37.9958 9.25879 38.2017 9.29102 38.4058 9.29102C38.6779 9.29102 38.9053 9.25521 39.0879 9.18359C39.2741 9.11198 39.4155 9.01351 39.5122 8.88818C39.6089 8.76286 39.6572 8.61963 39.6572 8.4585ZM45.3398 8.4585C45.3398 8.31527 45.3076 8.18278 45.2432 8.06104C45.1823 7.93571 45.0552 7.82292 44.8618 7.72266C44.672 7.61882 44.3856 7.5293 44.0024 7.4541C43.6802 7.38607 43.3883 7.3055 43.127 7.2124C42.8691 7.1193 42.6489 7.00651 42.4663 6.87402C42.2873 6.74154 42.1494 6.58577 42.0527 6.40674C41.9561 6.2277 41.9077 6.01823 41.9077 5.77832C41.9077 5.54915 41.9578 5.33252 42.0581 5.12842C42.1619 4.92432 42.307 4.74349 42.4932 4.58594C42.6829 4.42839 42.9103 4.30485 43.1753 4.21533C43.4403 4.12581 43.7357 4.08105 44.0615 4.08105C44.527 4.08105 44.9245 4.16341 45.2539 4.32812C45.5833 4.49284 45.8358 4.71305 46.0112 4.98877C46.1867 5.2609 46.2744 5.56348 46.2744 5.89648H45.2808C45.2808 5.73535 45.2324 5.57959 45.1357 5.4292C45.0426 5.27523 44.9048 5.14811 44.7222 5.04785C44.5431 4.94759 44.3229 4.89746 44.0615 4.89746C43.7858 4.89746 43.562 4.94043 43.3901 5.02637C43.2218 5.10872 43.0983 5.21436 43.0195 5.34326C42.9443 5.47217 42.9067 5.60824 42.9067 5.75146C42.9067 5.85889 42.9246 5.95557 42.9604 6.0415C42.9998 6.12386 43.0679 6.20085 43.1646 6.27246C43.2612 6.34049 43.3973 6.40495 43.5728 6.46582C43.7482 6.52669 43.972 6.58757 44.2441 6.64844C44.7204 6.75586 45.1125 6.88477 45.4204 7.03516C45.7284 7.18555 45.9575 7.36995 46.1079 7.58838C46.2583 7.8068 46.3335 8.07178 46.3335 8.3833C46.3335 8.63753 46.2798 8.87028 46.1724 9.08154C46.0685 9.29281 45.9163 9.47542 45.7158 9.62939C45.5189 9.77979 45.2826 9.89795 45.0068 9.98389C44.7347 10.0662 44.4285 10.1074 44.0884 10.1074C43.5763 10.1074 43.1431 10.0161 42.7886 9.8335C42.4341 9.65088 42.1655 9.41455 41.9829 9.12451C41.8003 8.83447 41.709 8.52832 41.709 8.20605H42.708C42.7223 8.47819 42.8011 8.69482 42.9443 8.85596C43.0876 9.01351 43.263 9.1263 43.4707 9.19434C43.6784 9.25879 43.8843 9.29102 44.0884 9.29102C44.3605 9.29102 44.5879 9.25521 44.7705 9.18359C44.9567 9.11198 45.0981 9.01351 45.1948 8.88818C45.2915 8.76286 45.3398 8.61963 45.3398 8.4585ZM47.3755 7.15869V7.03516C47.3755 6.61621 47.4364 6.2277 47.5581 5.86963C47.6799 5.50798 47.8553 5.19466 48.0845 4.92969C48.3136 4.66113 48.5911 4.45345 48.917 4.30664C49.2428 4.15625 49.6081 4.08105 50.0127 4.08105C50.4209 4.08105 50.7879 4.15625 51.1138 4.30664C51.4432 4.45345 51.7225 4.66113 51.9517 4.92969C52.1844 5.19466 52.3617 5.50798 52.4834 5.86963C52.6051 6.2277 52.666 6.61621 52.666 7.03516V7.15869C52.666 7.57764 52.6051 7.96615 52.4834 8.32422C52.3617 8.68229 52.1844 8.99561 51.9517 9.26416C51.7225 9.52913 51.445 9.73682 51.1191 9.88721C50.7969 10.034 50.4316 10.1074 50.0234 10.1074C49.6152 10.1074 49.2482 10.034 48.9224 9.88721C48.5965 9.73682 48.3172 9.52913 48.0845 9.26416C47.8553 8.99561 47.6799 8.68229 47.5581 8.32422C47.4364 7.96615 47.3755 7.57764 47.3755 7.15869ZM48.3691 7.03516V7.15869C48.3691 7.44873 48.4032 7.72266 48.4712 7.98047C48.5392 8.2347 48.6413 8.46029 48.7773 8.65723C48.917 8.85417 49.0907 9.00993 49.2983 9.12451C49.506 9.23551 49.7477 9.29102 50.0234 9.29102C50.2956 9.29102 50.5337 9.23551 50.7378 9.12451C50.9455 9.00993 51.1174 8.85417 51.2534 8.65723C51.3895 8.46029 51.4915 8.2347 51.5596 7.98047C51.6312 7.72266 51.667 7.44873 51.667 7.15869V7.03516C51.667 6.7487 51.6312 6.47835 51.5596 6.22412C51.4915 5.96631 51.3877 5.73893 51.248 5.54199C51.112 5.34147 50.9401 5.18392 50.7324 5.06934C50.5283 4.95475 50.2884 4.89746 50.0127 4.89746C49.7406 4.89746 49.5007 4.95475 49.293 5.06934C49.0889 5.18392 48.917 5.34147 48.7773 5.54199C48.6413 5.73893 48.5392 5.96631 48.4712 6.22412C48.4032 6.47835 48.3691 6.7487 48.3691 7.03516ZM57.9834 5.60107H58.6924C59.0397 5.60107 59.3262 5.54378 59.5518 5.4292C59.7809 5.31104 59.951 5.15169 60.062 4.95117C60.1766 4.74707 60.2339 4.5179 60.2339 4.26367C60.2339 3.96289 60.1838 3.71045 60.0835 3.50635C59.9832 3.30225 59.8328 3.14827 59.6323 3.04443C59.4318 2.94059 59.1776 2.88867 58.8696 2.88867C58.5903 2.88867 58.3433 2.94417 58.1284 3.05518C57.9172 3.1626 57.7507 3.31657 57.6289 3.51709C57.5107 3.71761 57.4517 3.95394 57.4517 4.22607H56.458C56.458 3.82861 56.5583 3.46696 56.7588 3.14111C56.9593 2.81527 57.2404 2.55566 57.6021 2.3623C57.9673 2.16895 58.3898 2.07227 58.8696 2.07227C59.3423 2.07227 59.7559 2.15641 60.1104 2.32471C60.4648 2.48942 60.7406 2.73649 60.9375 3.06592C61.1344 3.39176 61.2329 3.79818 61.2329 4.28516C61.2329 4.4821 61.1864 4.69336 61.0933 4.91895C61.0037 5.14095 60.8623 5.34863 60.6689 5.54199C60.4792 5.73535 60.2321 5.89469 59.9277 6.02002C59.6234 6.14176 59.2581 6.20264 58.832 6.20264H57.9834V5.60107ZM57.9834 6.41748V5.82129H58.832C59.3298 5.82129 59.7415 5.88037 60.0674 5.99854C60.3932 6.1167 60.6493 6.27425 60.8354 6.47119C61.0252 6.66813 61.1577 6.88477 61.2329 7.12109C61.3117 7.35384 61.3511 7.58659 61.3511 7.81934C61.3511 8.18457 61.2884 8.50863 61.1631 8.7915C61.0413 9.07438 60.8677 9.31429 60.6421 9.51123C60.4201 9.70817 60.1587 9.85677 59.8579 9.95703C59.5571 10.0573 59.2295 10.1074 58.875 10.1074C58.5348 10.1074 58.2144 10.0591 57.9136 9.9624C57.6164 9.86572 57.3532 9.72607 57.124 9.54346C56.8949 9.35726 56.7158 9.12988 56.5869 8.86133C56.458 8.58919 56.3936 8.27946 56.3936 7.93213H57.3872C57.3872 8.20426 57.4463 8.44238 57.5645 8.64648C57.6862 8.85059 57.8581 9.00993 58.0801 9.12451C58.3057 9.23551 58.5706 9.29102 58.875 9.29102C59.1794 9.29102 59.4408 9.2391 59.6592 9.13525C59.8812 9.02783 60.0513 8.8667 60.1694 8.65186C60.2912 8.43701 60.3521 8.16667 60.3521 7.84082C60.3521 7.51497 60.284 7.24821 60.1479 7.04053C60.0119 6.82926 59.8185 6.6735 59.5679 6.57324C59.3208 6.4694 59.029 6.41748 58.6924 6.41748H57.9834Z" fill="#353535"/>
<path d="M72 6L356 6C357.657 6 359 7.34315 359 9V18.5V31V43.5V53C359 54.6569 357.657 56 356 56H4C2.34314 56 1 54.6569 1 53V43.5" stroke="#A1A1A1"/>
</svg>
