<svg width="393" height="57" viewBox="0 0 393 57" fill="none" xmlns="http://www.w3.org/2000/svg">
<path d="M26.4497 6.93311H24.3604V6.08984H26.4497C26.8543 6.08984 27.182 6.02539 27.4326 5.89648C27.6833 5.76758 27.8659 5.58854 27.9805 5.35938C28.0986 5.13021 28.1577 4.86882 28.1577 4.5752C28.1577 4.30664 28.0986 4.0542 27.9805 3.81787C27.8659 3.58154 27.6833 3.39176 27.4326 3.24854C27.182 3.10173 26.8543 3.02832 26.4497 3.02832H24.6021V10H23.5654V2.17969H26.4497C27.0405 2.17969 27.54 2.28174 27.9482 2.48584C28.3564 2.68994 28.6662 2.97282 28.8774 3.33447C29.0887 3.69255 29.1943 4.10254 29.1943 4.56445C29.1943 5.06576 29.0887 5.49365 28.8774 5.84814C28.6662 6.20264 28.3564 6.47298 27.9482 6.65918C27.54 6.8418 27.0405 6.93311 26.4497 6.93311ZM33.7168 9.00635V6.01465C33.7168 5.78548 33.6702 5.58675 33.5771 5.41846C33.4876 5.24658 33.3516 5.1141 33.1689 5.021C32.9863 4.9279 32.7607 4.88135 32.4922 4.88135C32.2415 4.88135 32.0213 4.92432 31.8315 5.01025C31.6453 5.09619 31.4985 5.20898 31.3911 5.34863C31.2873 5.48828 31.2354 5.63867 31.2354 5.7998H30.2417C30.2417 5.59212 30.2954 5.38623 30.4028 5.18213C30.5103 4.97803 30.6642 4.79362 30.8647 4.62891C31.0688 4.46061 31.3123 4.32812 31.5952 4.23145C31.8817 4.13118 32.2004 4.08105 32.5513 4.08105C32.9738 4.08105 33.3462 4.15267 33.6685 4.2959C33.9943 4.43913 34.2485 4.65576 34.4312 4.9458C34.6174 5.23226 34.7104 5.59212 34.7104 6.02539V8.73242C34.7104 8.92578 34.7266 9.13167 34.7588 9.3501C34.7946 9.56852 34.8465 9.75651 34.9146 9.91406V10H33.8779C33.8278 9.88542 33.7884 9.73324 33.7598 9.54346C33.7311 9.3501 33.7168 9.17106 33.7168 9.00635ZM33.8887 6.47656L33.8994 7.1748H32.895C32.6121 7.1748 32.3597 7.19808 32.1377 7.24463C31.9157 7.2876 31.7295 7.35384 31.5791 7.44336C31.4287 7.53288 31.3141 7.64567 31.2354 7.78174C31.1566 7.91423 31.1172 8.06999 31.1172 8.24902C31.1172 8.43164 31.1584 8.59814 31.2407 8.74854C31.3231 8.89893 31.4466 9.01888 31.6113 9.1084C31.7796 9.19434 31.9855 9.2373 32.229 9.2373C32.5334 9.2373 32.8019 9.17285 33.0347 9.04395C33.2674 8.91504 33.4518 8.75749 33.5879 8.57129C33.7275 8.38509 33.8027 8.20426 33.8135 8.02881L34.2378 8.50684C34.2127 8.65723 34.1447 8.82373 34.0337 9.00635C33.9227 9.18896 33.7741 9.36442 33.5879 9.53271C33.4053 9.69743 33.1868 9.83529 32.9326 9.94629C32.682 10.0537 32.3991 10.1074 32.084 10.1074C31.6901 10.1074 31.3446 10.0304 31.0474 9.87646C30.7537 9.72249 30.5246 9.5166 30.3599 9.25879C30.1987 8.9974 30.1182 8.70557 30.1182 8.3833C30.1182 8.07178 30.179 7.79785 30.3008 7.56152C30.4225 7.32161 30.598 7.12288 30.8271 6.96533C31.0563 6.8042 31.332 6.68245 31.6543 6.6001C31.9766 6.51774 32.3364 6.47656 32.7339 6.47656H33.8887ZM39.6572 8.4585C39.6572 8.31527 39.625 8.18278 39.5605 8.06104C39.4997 7.93571 39.3726 7.82292 39.1792 7.72266C38.9894 7.61882 38.703 7.5293 38.3198 7.4541C37.9976 7.38607 37.7057 7.3055 37.4443 7.2124C37.1865 7.1193 36.9663 7.00651 36.7837 6.87402C36.6047 6.74154 36.4668 6.58577 36.3701 6.40674C36.2734 6.2277 36.2251 6.01823 36.2251 5.77832C36.2251 5.54915 36.2752 5.33252 36.3755 5.12842C36.4793 4.92432 36.6243 4.74349 36.8105 4.58594C37.0003 4.42839 37.2277 4.30485 37.4927 4.21533C37.7576 4.12581 38.0531 4.08105 38.3789 4.08105C38.8444 4.08105 39.2419 4.16341 39.5713 4.32812C39.9007 4.49284 40.1532 4.71305 40.3286 4.98877C40.5041 5.2609 40.5918 5.56348 40.5918 5.89648H39.5981C39.5981 5.73535 39.5498 5.57959 39.4531 5.4292C39.36 5.27523 39.2222 5.14811 39.0396 5.04785C38.8605 4.94759 38.6403 4.89746 38.3789 4.89746C38.1032 4.89746 37.8794 4.94043 37.7075 5.02637C37.5392 5.10872 37.4157 5.21436 37.3369 5.34326C37.2617 5.47217 37.2241 5.60824 37.2241 5.75146C37.2241 5.85889 37.242 5.95557 37.2778 6.0415C37.3172 6.12386 37.3853 6.20085 37.4819 6.27246C37.5786 6.34049 37.7147 6.40495 37.8901 6.46582C38.0656 6.52669 38.2894 6.58757 38.5615 6.64844C39.0378 6.75586 39.4299 6.88477 39.7378 7.03516C40.0457 7.18555 40.2749 7.36995 40.4253 7.58838C40.5757 7.8068 40.6509 8.07178 40.6509 8.3833C40.6509 8.63753 40.5972 8.87028 40.4897 9.08154C40.3859 9.29281 40.2337 9.47542 40.0332 9.62939C39.8363 9.77979 39.5999 9.89795 39.3242 9.98389C39.0521 10.0662 38.7459 10.1074 38.4058 10.1074C37.8937 10.1074 37.4604 10.0161 37.106 9.8335C36.7515 9.65088 36.4829 9.41455 36.3003 9.12451C36.1177 8.83447 36.0264 8.52832 36.0264 8.20605H37.0254C37.0397 8.47819 37.1185 8.69482 37.2617 8.85596C37.4049 9.01351 37.5804 9.1263 37.7881 9.19434C37.9958 9.25879 38.2017 9.29102 38.4058 9.29102C38.6779 9.29102 38.9053 9.25521 39.0879 9.18359C39.2741 9.11198 39.4155 9.01351 39.5122 8.88818C39.6089 8.76286 39.6572 8.61963 39.6572 8.4585ZM45.3398 8.4585C45.3398 8.31527 45.3076 8.18278 45.2432 8.06104C45.1823 7.93571 45.0552 7.82292 44.8618 7.72266C44.672 7.61882 44.3856 7.5293 44.0024 7.4541C43.6802 7.38607 43.3883 7.3055 43.127 7.2124C42.8691 7.1193 42.6489 7.00651 42.4663 6.87402C42.2873 6.74154 42.1494 6.58577 42.0527 6.40674C41.9561 6.2277 41.9077 6.01823 41.9077 5.77832C41.9077 5.54915 41.9578 5.33252 42.0581 5.12842C42.1619 4.92432 42.307 4.74349 42.4932 4.58594C42.6829 4.42839 42.9103 4.30485 43.1753 4.21533C43.4403 4.12581 43.7357 4.08105 44.0615 4.08105C44.527 4.08105 44.9245 4.16341 45.2539 4.32812C45.5833 4.49284 45.8358 4.71305 46.0112 4.98877C46.1867 5.2609 46.2744 5.56348 46.2744 5.89648H45.2808C45.2808 5.73535 45.2324 5.57959 45.1357 5.4292C45.0426 5.27523 44.9048 5.14811 44.7222 5.04785C44.5431 4.94759 44.3229 4.89746 44.0615 4.89746C43.7858 4.89746 43.562 4.94043 43.3901 5.02637C43.2218 5.10872 43.0983 5.21436 43.0195 5.34326C42.9443 5.47217 42.9067 5.60824 42.9067 5.75146C42.9067 5.85889 42.9246 5.95557 42.9604 6.0415C42.9998 6.12386 43.0679 6.20085 43.1646 6.27246C43.2612 6.34049 43.3973 6.40495 43.5728 6.46582C43.7482 6.52669 43.972 6.58757 44.2441 6.64844C44.7204 6.75586 45.1125 6.88477 45.4204 7.03516C45.7284 7.18555 45.9575 7.36995 46.1079 7.58838C46.2583 7.8068 46.3335 8.07178 46.3335 8.3833C46.3335 8.63753 46.2798 8.87028 46.1724 9.08154C46.0685 9.29281 45.9163 9.47542 45.7158 9.62939C45.5189 9.77979 45.2826 9.89795 45.0068 9.98389C44.7347 10.0662 44.4285 10.1074 44.0884 10.1074C43.5763 10.1074 43.1431 10.0161 42.7886 9.8335C42.4341 9.65088 42.1655 9.41455 41.9829 9.12451C41.8003 8.83447 41.709 8.52832 41.709 8.20605H42.708C42.7223 8.47819 42.8011 8.69482 42.9443 8.85596C43.0876 9.01351 43.263 9.1263 43.4707 9.19434C43.6784 9.25879 43.8843 9.29102 44.0884 9.29102C44.3605 9.29102 44.5879 9.25521 44.7705 9.18359C44.9567 9.11198 45.0981 9.01351 45.1948 8.88818C45.2915 8.76286 45.3398 8.61963 45.3398 8.4585ZM47.3755 7.15869V7.03516C47.3755 6.61621 47.4364 6.2277 47.5581 5.86963C47.6799 5.50798 47.8553 5.19466 48.0845 4.92969C48.3136 4.66113 48.5911 4.45345 48.917 4.30664C49.2428 4.15625 49.6081 4.08105 50.0127 4.08105C50.4209 4.08105 50.7879 4.15625 51.1138 4.30664C51.4432 4.45345 51.7225 4.66113 51.9517 4.92969C52.1844 5.19466 52.3617 5.50798 52.4834 5.86963C52.6051 6.2277 52.666 6.61621 52.666 7.03516V7.15869C52.666 7.57764 52.6051 7.96615 52.4834 8.32422C52.3617 8.68229 52.1844 8.99561 51.9517 9.26416C51.7225 9.52913 51.445 9.73682 51.1191 9.88721C50.7969 10.034 50.4316 10.1074 50.0234 10.1074C49.6152 10.1074 49.2482 10.034 48.9224 9.88721C48.5965 9.73682 48.3172 9.52913 48.0845 9.26416C47.8553 8.99561 47.6799 8.68229 47.5581 8.32422C47.4364 7.96615 47.3755 7.57764 47.3755 7.15869ZM48.3691 7.03516V7.15869C48.3691 7.44873 48.4032 7.72266 48.4712 7.98047C48.5392 8.2347 48.6413 8.46029 48.7773 8.65723C48.917 8.85417 49.0907 9.00993 49.2983 9.12451C49.506 9.23551 49.7477 9.29102 50.0234 9.29102C50.2956 9.29102 50.5337 9.23551 50.7378 9.12451C50.9455 9.00993 51.1174 8.85417 51.2534 8.65723C51.3895 8.46029 51.4915 8.2347 51.5596 7.98047C51.6312 7.72266 51.667 7.44873 51.667 7.15869V7.03516C51.667 6.7487 51.6312 6.47835 51.5596 6.22412C51.4915 5.96631 51.3877 5.73893 51.248 5.54199C51.112 5.34147 50.9401 5.18392 50.7324 5.06934C50.5283 4.95475 50.2884 4.89746 50.0127 4.89746C49.7406 4.89746 49.5007 4.95475 49.293 5.06934C49.0889 5.18392 48.917 5.34147 48.7773 5.54199C48.6413 5.73893 48.5392 5.96631 48.4712 6.22412C48.4032 6.47835 48.3691 6.7487 48.3691 7.03516ZM61.6572 9.18359V10H56.5386V9.28564L59.1006 6.43359C59.4157 6.08268 59.6592 5.78548 59.8311 5.54199C60.0065 5.29492 60.1283 5.07471 60.1963 4.88135C60.2679 4.68441 60.3037 4.48389 60.3037 4.27979C60.3037 4.02197 60.25 3.78923 60.1426 3.58154C60.0387 3.37028 59.8848 3.20199 59.6807 3.07666C59.4766 2.95133 59.2295 2.88867 58.9395 2.88867C58.5921 2.88867 58.3021 2.95671 58.0693 3.09277C57.8402 3.22526 57.6683 3.41146 57.5537 3.65137C57.4391 3.89128 57.3818 4.16699 57.3818 4.47852H56.3882C56.3882 4.03809 56.4849 3.63525 56.6782 3.27002C56.8716 2.90479 57.158 2.61475 57.5376 2.3999C57.9172 2.18148 58.3844 2.07227 58.9395 2.07227C59.4336 2.07227 59.8561 2.15999 60.207 2.33545C60.5579 2.50732 60.8265 2.75081 61.0127 3.06592C61.2025 3.37744 61.2974 3.74268 61.2974 4.16162C61.2974 4.39079 61.258 4.62354 61.1792 4.85986C61.104 5.09261 60.9984 5.32536 60.8623 5.55811C60.7298 5.79085 60.5741 6.02002 60.395 6.24561C60.2196 6.47119 60.0316 6.6932 59.8311 6.91162L57.7363 9.18359H61.6572Z" fill="#353535"/>
<path d="M392.854 6.35355C393.049 6.15829 393.049 5.84171 392.854 5.64645L389.672 2.46447C389.476 2.2692 389.16 2.2692 388.964 2.46447C388.769 2.65973 388.769 2.97631 388.964 3.17157L391.793 6L388.964 8.82843C388.769 9.02369 388.769 9.34027 388.964 9.53553C389.16 9.7308 389.476 9.7308 389.672 9.53553L392.854 6.35355ZM356 55.5H4V56.5H356V55.5ZM358.5 34V43.5H359.5V34H358.5ZM358.5 43.5V53H359.5V43.5H358.5ZM358.5 9V18.5H359.5V9H358.5ZM362 31.5H380V30.5H362V31.5ZM72 6.5H356V5.5H72V6.5ZM1.5 53V41H0.5V53H1.5ZM1.5 41V26H0.5V41H1.5ZM1.5 26V23H0.5V26H1.5ZM1.5 23V15.5H0.5V23H1.5ZM383.5 28V9H382.5V28H383.5ZM386 6.5H392.5V5.5H386V6.5ZM359.5 34C359.5 32.6193 360.619 31.5 362 31.5V30.5C360.067 30.5 358.5 32.067 358.5 34H359.5ZM4 55.5C2.61929 55.5 1.5 54.3807 1.5 53H0.5C0.5 54.933 2.067 56.5 4 56.5V55.5ZM380 31.5C381.933 31.5 383.5 29.933 383.5 28H382.5C382.5 29.3807 381.381 30.5 380 30.5V31.5ZM383.5 9C383.5 7.61929 384.619 6.5 386 6.5V5.5C384.067 5.5 382.5 7.067 382.5 9H383.5ZM356 56.5C357.933 56.5 359.5 54.933 359.5 53H358.5C358.5 54.3807 357.381 55.5 356 55.5V56.5ZM359.5 9C359.5 7.067 357.933 5.5 356 5.5V6.5C357.381 6.5 358.5 7.61929 358.5 9H359.5Z" fill="#A1A1A1"/>
</svg>
